<svg version="1.1" xmlns="http://www.w3.org/2000/svg" width="3000" height="809">
<path d="M0 0 C2.67926173 -0.00345986 5.35849795 -0.0081043 8.03775263 -0.01418173 C13.84566845 -0.02497015 19.65350048 -0.024717 25.46142006 -0.01704025 C34.09823646 -0.00565558 42.73498264 -0.01151328 51.37179862 -0.02066517 C66.80041801 -0.03643625 82.22900006 -0.03510366 97.65762298 -0.02642844 C111.15967684 -0.018874 124.66171704 -0.01691529 138.16377258 -0.02049637 C139.06030368 -0.02072552 139.95683477 -0.02095468 140.88053348 -0.02119078 C144.52008396 -0.02212483 148.15963443 -0.02308004 151.7991849 -0.02407007 C185.9227846 -0.03324169 220.04636056 -0.02493521 254.1699566 -0.00877938 C284.46939622 0.00545684 314.76879801 0.00418293 345.0682373 -0.01016235 C379.13046712 -0.02623533 413.19267596 -0.03259118 447.25490904 -0.02332556 C450.88772805 -0.02236345 454.52054707 -0.02142492 458.15336609 -0.02049637 C459.0478219 -0.02025914 459.94227771 -0.0200219 460.86383824 -0.01977748 C474.35554575 -0.01636882 487.84723808 -0.0203489 501.33894348 -0.02793503 C516.68362552 -0.03652017 532.02826446 -0.0343526 547.37294114 -0.0180928 C555.95487297 -0.00929839 564.53671142 -0.00868797 573.11864078 -0.02003132 C578.85773666 -0.02677884 584.59675798 -0.02253514 590.33584285 -0.00951701 C593.60124263 -0.00241032 596.86642196 -0.00154575 600.13182193 -0.01073496 C631.72486568 -0.09280505 631.72486568 -0.09280505 645.90856934 6.63095093 C646.57203369 6.93468628 647.23549805 7.23842163 647.91906738 7.55136108 C670.84828531 18.31513147 688.67117775 36.56436322 697.65856934 60.38095093 C701.03650098 70.8571038 702.80873765 80.23716861 702.79279041 91.20742512 C702.79514264 92.30500956 702.79749487 93.40259401 702.79991838 94.53343859 C702.80660394 98.23117984 702.80615029 101.92888591 702.80574036 105.62663269 C702.80903926 108.29669219 702.81272718 110.96674862 702.81688184 113.63680667 C702.82620271 120.21832839 702.83012902 126.79984339 702.8324008 133.38137089 C702.83536425 141.26431975 702.84406255 149.14725971 702.85281508 157.0302039 C702.87365567 176.0849413 702.88412904 195.13968024 702.89294469 214.19442638 C702.89715212 223.21060428 702.90237401 232.22678152 702.90762922 241.24295886 C702.9255199 272.11204078 702.94051511 302.9811229 702.94794941 333.85020924 C702.94842417 335.78808037 702.94890005 337.7259515 702.94937707 339.66382263 C702.94973164 341.10532549 702.94973164 341.10532549 702.95009336 342.57594962 C702.95129455 347.44478795 702.95251 352.31362628 702.95373535 357.1824646 C702.9539755 358.14869729 702.95421565 359.11492997 702.95446308 360.11044244 C702.96235381 391.42921036 702.98578073 422.74794038 703.0182913 454.06669175 C703.05260757 487.18548941 703.07230226 520.3042649 703.07559365 553.42308062 C703.07601118 557.06056926 703.07649074 560.69805788 703.07701683 564.33554649 C703.07714002 565.23118596 703.07726321 566.12682543 703.07739014 567.04960549 C703.07972002 581.44905347 703.09536821 595.84845736 703.11585868 610.24788964 C703.13613869 624.72950724 703.1415837 639.21107203 703.13208804 653.6927012 C703.12688142 662.28975414 703.13271077 670.88663093 703.15462271 679.48365843 C703.16817182 685.23569319 703.1670177 690.98760724 703.15422076 696.73964331 C703.14735122 700.0110109 703.14880478 703.28197808 703.16378085 706.55332813 C703.29092048 736.16957014 696.79878429 761.5612791 675.65856934 783.38095093 C652.33488724 805.72491196 625.41068469 809.84998094 594.35546875 809.76190186 C591.69255581 809.76536232 589.02966849 809.77000731 586.36676264 809.77608359 C580.59763923 809.78686532 574.82860021 809.78662303 569.05947304 809.77894211 C560.48030297 809.76755122 551.90120352 809.77341833 543.32203387 809.78256703 C527.99584796 809.79833333 512.66969965 809.79700742 497.3435102 809.78833029 C483.93105457 809.78077422 470.51861271 809.7788179 457.1061554 809.78239822 C456.21538355 809.78262738 455.32461171 809.78285653 454.40684678 809.78309263 C450.79062664 809.7840267 447.17440651 809.7849819 443.55818639 809.78597193 C409.65712553 809.79514242 375.75608858 809.78683886 341.85503141 809.77068123 C311.7568164 809.75644514 281.65863948 809.75771906 251.5604248 809.77206421 C217.72011592 809.7881391 183.87982814 809.79449197 150.03951597 809.78522742 C146.43000508 809.78426531 142.82049418 809.78332679 139.21098328 809.78239822 C138.32227399 809.78216099 137.4335647 809.78192376 136.51792483 809.78167934 C123.11613618 809.77827146 109.71436282 809.78224928 96.31257629 809.78983688 C81.0693229 809.7984242 65.82611289 809.79624983 50.58286488 809.77999465 C42.05890439 809.77120389 33.53503791 809.77058452 25.01107991 809.78193317 C19.30938514 809.78868512 13.60776537 809.78442911 7.90608167 809.77141887 C4.66288125 809.76431825 1.41990238 809.76343842 -1.82329816 809.77263682 C-32.68092399 809.85341964 -58.10896134 804.10234748 -80.97033691 781.81845093 C-97.56068602 764.39225217 -106.51440471 742.34072128 -106.47285843 718.42584229 C-106.47491106 717.3265048 -106.4769637 716.22716732 -106.47907853 715.09451658 C-106.48474997 711.39685197 -106.48329109 707.69922459 -106.48187256 704.0015564 C-106.48445611 701.32920855 -106.48743046 698.65686371 -106.49087596 695.9845171 C-106.4984486 689.40128124 -106.50064865 682.81805349 -106.50120501 676.23481373 C-106.50211938 668.34910603 -106.50878911 660.46340582 -106.51555184 652.57770135 C-106.53160685 633.51850614 -106.53751459 614.45931174 -106.54230059 595.40011098 C-106.54463707 586.38236437 -106.54823978 577.36461839 -106.55199596 568.34687228 C-106.56483113 537.4732279 -106.57555027 506.59958388 -106.57899857 475.72593689 C-106.5792202 473.78809808 -106.57944198 471.85025926 -106.57966392 469.91242045 C-106.57988456 467.96992282 -106.58010504 466.02742519 -106.58032537 464.08492756 C-106.58076792 460.18799655 -106.58121503 456.29106553 -106.58166504 452.39413452 C-106.58177443 451.4279232 -106.58188382 450.46171189 -106.58199653 449.46622144 C-106.58562677 418.14016448 -106.60154577 386.81413068 -106.6248554 355.48808259 C-106.64945929 322.36204509 -106.66317167 289.23602081 -106.66436648 256.10997391 C-106.66453794 252.47253672 -106.66475336 248.83509954 -106.66500092 245.19766235 C-106.66505668 244.30203454 -106.66511245 243.40640673 -106.66516991 242.48363867 C-106.66631988 228.07921083 -106.67733727 213.67480676 -106.69188797 199.27038694 C-106.70626448 184.78781111 -106.70948344 170.30526572 -106.70144799 155.82268471 C-106.69699717 147.22301441 -106.70083043 138.62344247 -106.7166865 130.02378513 C-106.7264582 124.27259058 -106.7252374 118.52146471 -106.71525027 112.77027075 C-106.70987397 109.49781212 -106.71077205 106.22557859 -106.72175899 102.95312858 C-106.82129879 71.29488017 -106.82129879 71.29488017 -100.02893066 57.06845093 C-99.72261719 56.40240845 -99.41630371 55.73636597 -99.10070801 55.05014038 C-88.95570612 33.39153329 -72.16054277 16.00700665 -50.02893066 6.56845093 C-49.39068359 6.29041626 -48.75243652 6.01238159 -48.09484863 5.72592163 C-32.53934638 -0.53784705 -16.47549642 -0.04636395 0 0 Z " fill="#03D069" transform="translate(106.3414306640625,-0.380950927734375)"/>
<path d="M0 0 C153.45 0 306.9 0 465 0 C465 97 465 97 456 107 C454.54418203 108.73479114 453.10189527 110.48127383 451.6875 112.25 C448.19567292 116.56450885 444.62423581 120.79709511 441 125 C437.44532786 129.12455611 433.9320737 133.27208312 430.5 137.5 C426.11054182 142.90362902 421.58317191 148.18038455 417.04296875 153.45703125 C412.78648075 158.40558716 408.57832994 163.3947854 404.36767578 168.38232422 C402.97540583 170.02908979 401.57994527 171.67310067 400.18359375 173.31640625 C395.93259941 178.32234652 391.70435708 183.3404038 387.5625 188.4375 C383.15086945 193.85570579 378.60676358 199.1527085 374.05078125 204.44921875 C367.80572679 211.71031003 361.6036885 219.00553429 355.5625 226.4375 C351.15086945 231.85570579 346.60676358 237.1527085 342.05078125 242.44921875 C335.80572679 249.71031003 329.6036885 257.00553429 323.5625 264.4375 C319.15086945 269.85570579 314.60676358 275.1527085 310.05078125 280.44921875 C303.82477633 287.68816124 297.6391376 294.95865909 291.625 302.375 C287.45843577 307.49733524 283.13798719 312.47417378 278.79956055 317.45043945 C274.8775046 321.95939957 271.06968135 326.54698064 267.30859375 331.19140625 C264.58655909 334.5029848 261.79860269 337.75313059 259 341 C255.44542508 345.124643 251.93207702 349.27207904 248.5 353.5 C244.11287098 358.90076172 239.58776588 364.174677 235.05078125 369.44921875 C228.80572679 376.71031003 222.6036885 384.00553429 216.5625 391.4375 C212.53923409 396.38140513 208.40989643 401.22708932 204.24829102 406.05444336 C203.76932373 406.61010986 203.29035645 407.16577637 202.796875 407.73828125 C202.37760742 408.22337158 201.95833984 408.70846191 201.52636719 409.20825195 C199.32933226 411.78727296 197.16892281 414.39729263 195 417 C288.06 417.33 381.12 417.66 477 418 C477 458.26 477 498.52 477 540 C317.28 540 157.56 540 -7 540 C-7 442.15584005 -7 442.15584005 8.5 424.5 C12.99680901 419.34578947 17.3862905 414.12481926 21.69140625 408.80859375 C24.41344091 405.4970152 27.20139731 402.24686941 30 399 C33.55457492 394.875357 37.06792298 390.72792096 40.5 386.5 C44.88712902 381.09923828 49.41223412 375.825323 53.94921875 370.55078125 C60.19427321 363.28968997 66.3963115 355.99446571 72.4375 348.5625 C76.8514623 343.14143044 81.39782805 337.84158026 85.95703125 332.54296875 C90.21351925 327.59441284 94.42167006 322.6052146 98.63232422 317.61767578 C100.02459417 315.97091021 101.42005473 314.32689933 102.81640625 312.68359375 C107.06740059 307.67765348 111.29564292 302.6595962 115.4375 297.5625 C119.84913055 292.14429421 124.39323642 286.8472915 128.94921875 281.55078125 C135.19427321 274.28968997 141.3963115 266.99446571 147.4375 259.5625 C151.84913055 254.14429421 156.39323642 248.8472915 160.94921875 243.55078125 C167.19427321 236.28968997 173.3963115 228.99446571 179.4375 221.5625 C183.84913055 216.14429421 188.39323642 210.8472915 192.94921875 205.55078125 C199.17522367 198.31183876 205.3608624 191.04134091 211.375 183.625 C215.54156423 178.50266476 219.86201281 173.52582622 224.20043945 168.54956055 C228.1224954 164.04060043 231.93031865 159.45301936 235.69140625 154.80859375 C238.41344254 151.49701322 241.20145714 148.24692334 244 145 C250.49514442 137.46057052 256.78309297 129.77113379 263 122 C132.815 121.505 132.815 121.505 0 121 C0 81.07 0 41.14 0 0 Z " fill="#02CF68" transform="translate(947,0)"/>
<path d="M0 0 C0.96164062 0.84175781 1.92328125 1.68351562 2.9140625 2.55078125 C19.22896498 17.03791617 30.99034574 33.19971331 40 53 C40.53367187 54.16660156 41.06734375 55.33320313 41.6171875 56.53515625 C55.3347486 88.62572016 57.16792058 123.70977946 57.11352539 158.11108398 C57.11324288 160.62557982 57.11340249 163.14007574 57.1139679 165.65457153 C57.11419447 171.04002437 57.11138694 176.42546156 57.10573006 181.81091118 C57.09755683 189.59708981 57.09499391 197.38326259 57.09374207 205.16944505 C57.09156064 217.80608194 57.08492533 230.44271233 57.07543945 243.0793457 C57.06624173 255.34497038 57.05918396 267.61059327 57.05493164 279.8762207 C57.05466364 280.64166401 57.05439565 281.40710732 57.05411953 282.19574589 C57.05203976 288.18319842 57.05008295 294.170651 57.04816496 300.15810359 C57.03875396 329.4387417 57.01863031 358.7193635 57 388 C8.49 388 -40.02 388 -90 388 C-90.06058594 372.71171875 -90.12117188 357.4234375 -90.18359375 341.671875 C-90.22410648 331.96484127 -90.26485152 322.25780943 -90.30664062 312.55078125 C-90.37287234 297.15609687 -90.43817753 281.7614127 -90.49731445 266.36669922 C-90.54039719 255.15240187 -90.58673324 243.93812333 -90.63687855 232.72385526 C-90.66328704 226.79315128 -90.68813257 220.86245056 -90.70907402 214.93172455 C-90.72889143 209.33394861 -90.75310351 203.73620783 -90.78049088 198.13846397 C-90.78973037 196.09892362 -90.79745044 194.05937563 -90.80341911 192.01982307 C-90.51787118 167.2055924 -90.51787118 167.2055924 -93.6875 142.6875 C-93.86047607 141.86975098 -94.03345215 141.05200195 -94.21166992 140.20947266 C-96.96952604 127.92436827 -101.42343248 115.28182691 -110.70703125 106.359375 C-112 105 -112 105 -112 103 C-112.58007812 102.72800781 -113.16015625 102.45601562 -113.7578125 102.17578125 C-115.9813322 101.00978921 -117.85666267 99.67572927 -119.875 98.1875 C-136.98094686 86.5941008 -159.35847159 86.48541158 -179 90 C-192.35756262 93.10288147 -203.72559157 98.99468094 -214 108 C-214.62777344 108.54398438 -215.25554688 109.08796875 -215.90234375 109.6484375 C-231.53824158 124.18521326 -239.11089457 148.08316428 -240.09847271 169.0951308 C-240.14159486 171.47441961 -240.15544583 173.85211541 -240.15821838 176.23179626 C-240.16315636 177.14024231 -240.16809434 178.04868836 -240.17318195 178.98466307 C-240.18849317 182.01703598 -240.19690024 185.04938783 -240.20532227 188.08178711 C-240.2149058 190.26013371 -240.22491616 192.43847846 -240.23532104 194.61682129 C-240.2623246 200.5232314 -240.28335879 206.42964946 -240.30332303 212.33608699 C-240.32521066 218.5113906 -240.35258576 224.68666982 -240.37937927 230.86195374 C-240.42926861 242.55251807 -240.47422139 254.24309596 -240.51740164 265.93368679 C-240.55208009 275.27684516 -240.5890193 284.61999207 -240.62768555 293.96313477 C-240.63043505 294.62812695 -240.63318456 295.29311914 -240.63601738 295.9782626 C-240.65995366 301.76315937 -240.68404511 307.54805549 -240.70815182 313.33295155 C-240.8116677 338.22194606 -240.90499598 363.11096817 -241 388 C-289.84 388 -338.68 388 -389 388 C-389 249.73 -389 111.46 -389 -31 C-342.47 -31 -295.94 -31 -248 -31 C-247.67 -16.81 -247.34 -2.62 -247 12 C-243.04 8.37 -239.08 4.74 -235 1 C-172.09687524 -49.45633625 -62.20783894 -55.07770457 0 0 Z " fill="#02CF68" transform="translate(2383,152)"/>
<path d="M0 0 C0.76207764 0.60980713 0.76207764 0.60980713 1.53955078 1.23193359 C20.27134857 16.31520303 35.18779686 33.70806232 48 54 C48.67675781 55.06089844 49.35351562 56.12179688 50.05078125 57.21484375 C79.49799236 105.90011261 83.87620949 168.43598345 70.54003906 222.83862305 C66.31395504 239.05602933 59.91996839 254.2642514 52 269 C51.40960937 270.13179688 50.81921875 271.26359375 50.2109375 272.4296875 C24.85450631 319.15026071 -21.62301165 353.50196305 -72 369 C-72.80614746 369.25088379 -73.61229492 369.50176758 -74.44287109 369.76025391 C-142.50529348 390.70552322 -220.45241505 386.57933678 -283.88916016 353 C-301.96224549 343.22612127 -318.19549005 331.17794112 -333 317 C-333.49886719 316.52836426 -333.99773437 316.05672852 -334.51171875 315.57080078 C-346.92628906 303.79052247 -356.8807511 290.4430453 -366 276 C-366.67675781 274.93910156 -367.35351562 273.87820313 -368.05078125 272.78515625 C-387.56028656 240.5299621 -395.2247513 203.0140822 -395.25 165.75 C-395.25067474 164.85638763 -395.25134949 163.96277527 -395.25204468 163.04208374 C-395.23579168 149.48875106 -394.77440644 136.31076686 -392 123 C-391.81775879 122.11376953 -391.63551758 121.22753906 -391.44775391 120.31445312 C-382.36666452 77.31393965 -360.3851398 35.23134171 -326 7 C-325.07445312 6.20980469 -324.14890625 5.41960937 -323.1953125 4.60546875 C-317.04196492 -0.63583118 -310.76463481 -5.56198959 -304 -10 C-303.10796875 -10.58910156 -302.2159375 -11.17820313 -301.296875 -11.78515625 C-214.68856374 -66.9922866 -89.17602112 -65.70317368 0 0 Z M-224.2890625 94.44140625 C-245.78243644 120.29154518 -248.24526527 152.70532391 -245.77294922 184.96240234 C-245.23892113 189.75923668 -244.27991951 194.33964792 -243 199 C-242.6596875 200.25683594 -242.319375 201.51367188 -241.96875 202.80859375 C-235.06464287 225.59681222 -221.46348029 243.4401126 -200.54174805 255.24951172 C-189.12913392 261.32041196 -176.80527033 263.93041826 -164 265 C-163.17757813 265.0721875 -162.35515625 265.144375 -161.5078125 265.21875 C-140.13337067 266.10627008 -118.67705638 258.58563995 -102.75 244.5 C-101.16088245 243.00612924 -99.57705355 241.50660099 -98 240 C-97.06027344 239.17242187 -97.06027344 239.17242187 -96.1015625 238.328125 C-80.5955597 224.15521746 -73.41708946 200.47608214 -72 180 C-70.79543785 148.66008548 -73.0769742 118.51864816 -95 94 C-95.73863281 93.16726563 -96.47726562 92.33453125 -97.23828125 91.4765625 C-112.16331273 75.59886944 -131.93733389 67.59006502 -153.60546875 66.71484375 C-181.17585367 66.07769388 -205.01662221 73.88632915 -224.2890625 94.44140625 Z " fill="#02D068" transform="translate(1850,165)"/>
<path d="M0 0 C58.0870984 -1.5053059 117.68127422 9.88150005 163.6171875 47.07080078 C164.66326172 47.90224609 164.66326172 47.90224609 165.73046875 48.75048828 C170.21369981 52.42852707 173.9021313 56.63294076 177.6171875 61.07080078 C178.29523437 61.83779297 178.97328125 62.60478516 179.671875 63.39501953 C211.64590286 100.5463366 218.99555727 150.18937476 218.84423828 197.54418945 C218.84367288 200.04942317 218.84399325 202.55465722 218.84512329 205.05989075 C218.84557542 210.4130982 218.83998641 215.76624473 218.82864761 221.11943626 C218.81226528 228.85886381 218.80717172 236.59826789 218.80467163 244.33771089 C218.80031429 256.90004015 218.78705894 269.46234316 218.76806641 282.0246582 C218.74965647 294.21443555 218.73554811 306.40420569 218.72705078 318.59399414 C218.72651479 319.35534796 218.72597879 320.11670178 218.72542655 320.90112692 C218.72126674 326.85704298 218.71735323 332.8129592 218.71351743 338.76887548 C218.69471282 367.86954135 218.65446152 396.97014138 218.6171875 426.07080078 C173.4071875 426.07080078 128.1971875 426.07080078 81.6171875 426.07080078 C81.2871875 409.57080078 80.9571875 393.07080078 80.6171875 376.07080078 C77.9771875 380.03080078 75.3371875 383.99080078 72.6171875 388.07080078 C69.66663931 391.50637059 66.74088927 394.81079203 63.6171875 398.07080078 C63.03195312 398.70759766 62.44671875 399.34439453 61.84375 400.00048828 C57.29177123 404.80891655 52.14739239 408.4594094 46.6171875 412.07080078 C45.49570313 412.82683594 45.49570313 412.82683594 44.3515625 413.59814453 C10.60180029 435.23702268 -36.78365784 437.20046121 -75.3828125 431.07080078 C-76.20040039 430.94721191 -77.01798828 430.82362305 -77.86035156 430.69628906 C-108.70032746 425.90476738 -138.78507886 414.093641 -161.3828125 392.07080078 C-162.2284375 391.26642578 -163.0740625 390.46205078 -163.9453125 389.63330078 C-164.7496875 388.78767578 -165.5540625 387.94205078 -166.3828125 387.07080078 C-167.03636719 386.41208984 -167.68992187 385.75337891 -168.36328125 385.07470703 C-191.84087707 360.46566081 -198.27183127 327.17413031 -197.51904297 294.27587891 C-196.35382162 266.86185397 -184.68104528 239.76595064 -164.55078125 220.92236328 C-155.45897186 213.15746661 -146.05968674 206.51310918 -135.3828125 201.07080078 C-134.73280273 200.73838379 -134.08279297 200.4059668 -133.41308594 200.06347656 C-109.47359851 188.08226208 -81.92242417 182.52457856 -55.3828125 180.07080078 C-54.54176468 179.98703186 -53.70071686 179.90326294 -52.83418274 179.81695557 C-40.33964694 178.74278796 -27.82690553 178.9456434 -15.296875 178.97314453 C-12.78339669 178.97501272 -10.26991801 178.97643473 -7.75643921 178.97743225 C-1.85305457 178.9808397 4.05031059 178.98869351 9.95368731 178.99878174 C17.34672565 179.01113651 24.73976645 179.01644404 32.1328125 179.02197266 C45.29428039 179.03265431 58.45573274 179.0494964 71.6171875 179.07080078 C71.00798868 176.04049226 70.38775077 173.01254205 69.765625 169.98486328 C69.59474365 169.1341626 69.4238623 168.28346191 69.24780273 167.40698242 C67.01381165 156.60154768 63.07784264 145.30608423 54.9375 137.44970703 C53.6171875 136.07080078 53.6171875 136.07080078 53.6171875 134.07080078 C53.04226562 133.79880859 52.46734375 133.52681641 51.875 133.24658203 C49.60345008 132.06364686 47.58987947 130.72513705 45.4921875 129.25830078 C16.62448281 110.04425501 -21.88404818 111.51013437 -54.66210938 117.68896484 C-80.04480047 122.95085645 -106.09066094 131.09278623 -126.421875 147.80517578 C-127.39253906 148.43166016 -127.39253906 148.43166016 -128.3828125 149.07080078 C-131.88694288 147.90275732 -131.99148559 147.48082092 -133.5725708 144.33293152 C-133.98201935 143.5295787 -134.3914679 142.72622589 -134.81332397 141.89852905 C-135.25294464 141.01073761 -135.69256531 140.12294617 -136.14550781 139.20825195 C-136.85083145 137.81315651 -136.85083145 137.81315651 -137.57040405 136.38987732 C-139.12749648 133.30287672 -140.66968158 130.20870382 -142.2109375 127.11376953 C-143.28468819 124.97217218 -144.35897485 122.83084348 -145.43377686 120.68977356 C-147.68646596 116.19629663 -149.93164926 111.69916568 -152.171875 107.19946289 C-155.04783684 101.42465923 -157.9435354 95.66001855 -160.84511185 89.89805126 C-163.06860661 85.47659951 -165.28084622 81.04959102 -167.48976898 76.62084389 C-168.5530955 74.4927004 -169.62011496 72.36639806 -170.69083405 70.24196434 C-172.18471189 67.27409931 -173.66312613 64.29902805 -175.13769531 61.3215332 C-175.5854129 60.43981445 -176.03313049 59.5580957 -176.49441528 58.6496582 C-176.89258453 57.83784592 -177.29075378 57.02603363 -177.70098877 56.18962097 C-178.05198261 55.48666995 -178.40297646 54.78371893 -178.76460648 54.05946636 C-179.51642498 51.64099175 -179.29390059 50.41201009 -178.3828125 48.07080078 C-175.09823633 45.21496354 -171.16254249 43.20894495 -167.3828125 41.07080078 C-166.31426025 40.46075195 -166.31426025 40.46075195 -165.22412109 39.83837891 C-115.31037557 11.67493247 -56.64893315 1.68321625 0 0 Z M-46.38671875 272.13720703 C-52.78102296 279.81304194 -54.9472611 287.61336271 -54.8203125 297.50830078 C-54.81273926 298.34014893 -54.80516602 299.17199707 -54.79736328 300.02905273 C-54.62728121 306.37236899 -53.72422438 311.57464666 -50.3828125 317.07080078 C-49.95871094 317.77205078 -49.53460937 318.47330078 -49.09765625 319.19580078 C-41.47998123 330.39951223 -29.53226264 336.38831631 -16.5078125 338.94580078 C-2.77331832 341.31204322 12.40650957 340.59555897 25.6171875 336.07080078 C26.46023437 335.78205078 27.30328125 335.49330078 28.171875 335.19580078 C46.56679316 328.31919586 60.68493479 316.28546329 69.26795959 298.46739197 C72.85437376 290.22340838 72.38406278 281.95185791 72.0546875 273.13330078 C72.01946282 271.46735211 71.98754382 269.80133016 71.95898438 268.13525391 C71.88298642 264.11190917 71.7628556 260.09220075 71.6171875 256.07080078 C61.74089888 256.00076519 51.86467098 255.9477211 41.98818302 255.91536427 C37.4003162 255.89982131 32.81262139 255.87879562 28.22485352 255.84448242 C23.78331796 255.81147729 19.34194605 255.79386273 14.90029716 255.78616905 C13.22013211 255.78069831 11.53997427 255.77001983 9.85988045 255.75361061 C-9.66669595 255.57077954 -31.95667345 257.25710184 -46.38671875 272.13720703 Z " fill="#02D068" transform="translate(2704.3828125,113.92919921875)"/>
<path d="M0 0 C12.71733846 10.96763753 21.04616396 26.45905121 22.71142578 43.2578125 C23.29305203 52.56383246 22.53394888 61.255593 19.5 70.125 C19.1596875 71.13175781 18.819375 72.13851562 18.46875 73.17578125 C15.42241522 81.27532676 10.92293789 87.57165608 4.91015625 93.76171875 C1.5626908 97.30324017 0.6381591 100.26971576 0.3671875 105.01171875 C0.56362233 108.1373435 1.43866477 109.78882008 3.5 112.125 C7.23615327 115.05333635 9.80867165 115.65609378 14.5 115.125 C16.018487 114.64320244 17.5310199 114.14246169 19.0390625 113.62890625 C24.4897297 111.96778829 29.5143787 111.62348522 35.1875 111.6875 C36.14648193 111.69579834 37.10546387 111.70409668 38.09350586 111.71264648 C55.83174251 112.13020906 71.21636358 118.74540037 83.8359375 131.22265625 C87.7651586 135.50331795 90.71687124 140.04344467 93.5 145.125 C93.89703125 145.77726563 94.2940625 146.42953125 94.703125 147.1015625 C102.14180576 160.1470101 102.91973174 179.30793142 99.06103516 193.61572266 C93.67722716 210.96448529 83.50924572 223.51656235 67.921875 232.6328125 C57.02988664 238.35281897 46.15088453 240.30290583 33.9375 240.3125 C33.11314453 240.32474609 32.28878906 240.33699219 31.43945312 240.34960938 C26.67480747 240.36103538 23.0082089 239.81966779 18.5 238.125 C13.7132213 237.43889505 10.37999865 237.66100071 6.0625 239.9375 C3.3325803 242.26791926 1.72244516 243.92418984 1.05859375 247.5078125 C0.69718231 255.69203274 3.18004483 259.19319814 8.5 265.125 C21.05212731 281.1535093 24.45906593 298.56022473 22.10546875 318.4609375 C18.60549818 334.94466986 8.94600629 349.11672392 -4.5 359.0625 C-19.41958662 368.73434558 -36.51125633 372.83827682 -54.0625 369.125 C-54.83207031 368.94710938 -55.60164063 368.76921875 -56.39453125 368.5859375 C-61.2214533 367.52920874 -64.38203836 367.52302065 -68.75 369.875 C-72.14299443 372.59349181 -72.14299443 372.59349181 -74.5 376.125 C-75.02399485 381.88894336 -74.2742634 385.92741649 -70.6171875 390.45703125 C-69.87726563 391.27558594 -69.13734375 392.09414063 -68.375 392.9375 C-56.25382697 407.44380708 -51.13064396 424.34261651 -52.5 443.125 C-54.51138977 456.40308756 -59.21758288 467.75022031 -68.0625 477.921875 C-71.73046001 482.29841819 -72.15031433 485.93256985 -71.84765625 491.60546875 C-71.39355624 494.89641824 -70.79185675 496.68528152 -68.5 499.125 C-63.63864277 502.58404264 -60.58567419 503.77703652 -54.5 503.125 C-53.45328125 502.79242187 -52.4065625 502.45984375 -51.328125 502.1171875 C-47.00146152 500.99578697 -43.19121672 500.81829155 -38.75 500.875 C-37.55431396 500.88950195 -37.55431396 500.88950195 -36.33447266 500.90429688 C-20.68415407 501.22206984 -6.31068089 506.55482826 5.5 517.125 C6.22316406 517.74503906 6.94632813 518.36507812 7.69140625 519.00390625 C14.34126741 525.11367717 18.54898377 532.12486105 22.5 540.125 C22.95761719 541.02347656 23.41523438 541.92195312 23.88671875 542.84765625 C29.5223535 556.27430886 27.95892129 574.67050755 23.45703125 588.27734375 C15.96774403 606.50212801 3.28883543 618.68289366 -14.59375 626.47265625 C-29.80788763 632.30334911 -46.30956983 631.46773194 -61.5 626.125 C-79.35411383 617.93036512 -91.58029301 604.38354149 -98.5 586.125 C-104.15226513 568.91225299 -102.28327192 552.2711492 -94.5 536.125 C-90.54488644 528.73943081 -85.80937858 523.0668199 -79.63671875 517.4140625 C-75.88517419 513.39504036 -75.03849023 509.40001288 -75.1796875 504.0546875 C-75.82380505 500.17427199 -78.25092033 498.02950597 -81.3125 495.8125 C-87.92946731 493.7328817 -93.15968486 495.82320755 -99.4375 498.15234375 C-113.92125079 502.75241256 -131.16427092 501.03198676 -144.75 494.58203125 C-147.77997229 492.89313088 -150.63991173 491.08677886 -153.5 489.125 C-154.37398438 488.52816406 -155.24796875 487.93132812 -156.1484375 487.31640625 C-166.22952204 479.85640369 -173.13165429 469.81112192 -177.5 458.125 C-177.75821533 457.50906982 -178.01643066 456.89313965 -178.2824707 456.25854492 C-180.8966656 449.48149086 -180.98158092 443.01371866 -180.9375 435.8125 C-180.9674707 434.09256836 -180.9674707 434.09256836 -180.99804688 432.33789062 C-180.98828486 415.0884084 -173.47242015 401.15945342 -161.5 389.125 C-160.90832031 388.49851562 -160.31664062 387.87203125 -159.70703125 387.2265625 C-147.87346174 375.68034236 -130.87798441 370.67417763 -114.73803711 370.76196289 C-108.69060502 370.93658583 -103.20262611 372.07926238 -97.5 374.125 C-92.6231798 375.75060673 -88.2727893 375.93431686 -83.625 373.8125 C-81.20713527 371.89243095 -79.74195882 370.21060284 -79.05859375 367.14453125 C-78.79514998 362.343056 -79.36701335 359.67552612 -82.5625 356 C-84.41516526 354.09887468 -86.32284967 352.2877447 -88.27734375 350.4921875 C-99.88104785 339.59891426 -105.04081888 324.85238657 -105.7734375 309.27734375 C-106.32011207 289.29610236 -100.79430334 274.24361016 -86.94140625 259.4765625 C-79.41959281 252.23155179 -71.32117198 247.55915815 -61.5 244.125 C-60.21029297 243.64546875 -60.21029297 243.64546875 -58.89453125 243.15625 C-46.90365387 239.23789975 -34.88651219 240.40777925 -22.98461914 243.75415039 C-17.61825034 245.22471259 -13.87811104 245.55916294 -8.5 244.125 C-5.73967897 242.00167613 -4.43771659 240.03157489 -2.5 237.125 C-2.05430757 233.16068316 -2.56205327 229.51104591 -4.81640625 226.1796875 C-5.99043898 224.87762799 -7.1878333 223.59641892 -8.40234375 222.33203125 C-21.64625372 208.39756359 -27.93316554 192.5481063 -27.79638672 173.50683594 C-27.34634981 156.36005153 -19.89296198 141.56347371 -7.8203125 129.67578125 C-4.77687312 126.33004739 -3.7211804 123.61006841 -3.0625 119.1875 C-3.68268106 114.84623258 -5.45313395 113.24441048 -8.5 110.125 C-12.51647442 108.11676279 -17.72184841 109.60029953 -21.8828125 110.828125 C-23.349167 111.33513571 -24.80976103 111.85937327 -26.26171875 112.40625 C-41.29878654 117.23490702 -58.418525 113.92872148 -72.25 107.0625 C-88.44058357 97.65310261 -99.12257304 83.35939902 -104.6015625 65.54296875 C-108.22442346 50.36752589 -107.04662285 32.83017765 -99.5 19.125 C-97.06306936 15.23446161 -94.41907786 11.66346203 -91.5 8.125 C-90.736875 7.073125 -89.97375 6.02125 -89.1875 4.9375 C-64.66130443 -20.72944885 -27.28720471 -20.69629526 0 0 Z " fill="#E0E0E0" transform="translate(444.5,96.875)"/>
<path d="M0 0 C1.30071607 0.92490364 2.5959557 1.857851 3.875 2.8125 C4.205 0.1725 4.535 -2.4675 4.875 -5.1875 C11.475 -5.1875 18.075 -5.1875 24.875 -5.1875 C24.94303468 5.1663322 24.99796467 15.52001361 25.03043652 25.87401962 C25.04602884 30.68286254 25.06714825 35.49154333 25.10131836 40.30029297 C25.13414295 44.94928815 25.15190127 49.59812832 25.15963173 54.24723053 C25.16513408 56.01246833 25.17587768 57.77769857 25.19219017 59.54286957 C25.31795019 73.72778866 24.84665372 87.77686786 14.97265625 98.96875 C3.24096754 110.33979006 -10.63602486 111.28116428 -26.08984375 111.09375 C-39.21775785 110.67981609 -51.1567408 107.1246728 -62.125 99.8125 C-60.76149571 96.16774815 -59.123536 92.90005513 -57.125 89.5625 C-56.609375 88.69109375 -56.09375 87.8196875 -55.5625 86.921875 C-54.125 84.8125 -54.125 84.8125 -52.125 83.8125 C-50.27685511 84.65499302 -48.47007635 85.58892124 -46.6875 86.5625 C-34.75983794 92.66106681 -22.28060037 95.33425283 -9.125 91.3125 C-3.83632338 89.12838576 -0.71890909 85.88151318 1.875 80.8125 C2.92092205 77.69375062 2.98060532 74.83850403 2.9375 71.5625 C2.92847656 70.67046875 2.91945313 69.7784375 2.91015625 68.859375 C2.89855469 68.18390625 2.88695312 67.5084375 2.875 66.8125 C2.25625 67.39 1.6375 67.9675 1 68.5625 C-9.26876736 75.9560125 -21.04550192 77.02088253 -33.32421875 75.38671875 C-44.24187876 73.06047224 -53.87245265 67.17503835 -60.125 57.8125 C-66.03976171 46.86094903 -67.871539 35.78718534 -65.4765625 23.48046875 C-62.23662631 12.69452732 -55.64159631 4.76037269 -46.125 -1.1875 C-42.86138477 -2.76651384 -39.57589255 -4.07892312 -36.125 -5.1875 C-35.53589844 -5.38085938 -34.94679688 -5.57421875 -34.33984375 -5.7734375 C-22.4202685 -8.00178843 -10.16325496 -6.65488676 0 0 Z M-40.125 18.8125 C-45.12223249 24.41713091 -45.55427605 30.39146746 -45.45703125 37.640625 C-44.81468719 43.77690002 -42.60536481 48.64549089 -37.9296875 52.73046875 C-30.0164191 58.2279704 -22.67759783 58.71932698 -13.125 57.8125 C-6.56724213 55.80802065 -1.78966356 52.58712137 1.875 46.8125 C5.11183189 39.6151543 5.94645314 33.38971526 3.375 25.8125 C0.61743608 19.39774138 -3.81688514 15.32871931 -10.125 12.4375 C-21.72196264 10.02146612 -30.82817903 10.8058501 -40.125 18.8125 Z " fill="#02D068" transform="translate(1758.125,698.1875)"/>
<path d="M0 0 C1.30071607 0.92490364 2.5959557 1.857851 3.875 2.8125 C4.019375 1.678125 4.16375 0.54375 4.3125 -0.625 C4.875 -4.1875 4.875 -4.1875 5.875 -5.1875 C7.29070123 -5.27401611 8.710595 -5.29454904 10.12890625 -5.28515625 C11.40991211 -5.28032227 11.40991211 -5.28032227 12.71679688 -5.27539062 C14.06354492 -5.26282227 14.06354492 -5.26282227 15.4375 -5.25 C16.33919922 -5.24548828 17.24089844 -5.24097656 18.16992188 -5.23632812 C20.40501314 -5.22450225 22.63997437 -5.2080222 24.875 -5.1875 C24.94480407 5.16629608 24.99796473 15.5200353 25.03043652 25.87401962 C25.04602884 30.68286254 25.06714825 35.49154333 25.10131836 40.30029297 C25.13414295 44.94928815 25.15190127 49.59812832 25.15963173 54.24723053 C25.16513408 56.01246833 25.17587768 57.77769857 25.19219017 59.54286957 C25.31958037 73.9116624 24.78803552 87.96936084 14.71484375 99.2265625 C2.99134489 110.63421432 -10.55912628 111.28209686 -26.08984375 111.09375 C-39.21775785 110.67981609 -51.1567408 107.1246728 -62.125 99.8125 C-60.75707535 96.19727058 -59.16896746 92.85570734 -57.25 89.5 C-56.51136719 88.17548828 -56.51136719 88.17548828 -55.7578125 86.82421875 C-55.21898438 86.16035156 -54.68015625 85.49648438 -54.125 84.8125 C-50.03475417 84.8125 -48.97494689 85.21920182 -45.5625 87.125 C-34.94609358 92.58043804 -23.7889167 94.70806645 -11.96484375 92.12109375 C-5.98415198 90.19729115 -2.44960669 88.17476885 0.875 82.8125 C3.36909356 77.45019884 3.48101463 71.63933619 3.875 65.8125 C3.09125 66.555 2.3075 67.2975 1.5 68.0625 C-7.54796152 75.64555347 -18.84314292 76.43861353 -30.125 75.8125 C-41.51055816 74.29720593 -51.35017731 69.02970923 -58.625 60.05859375 C-65.93680688 49.10992459 -67.8768622 37.23667439 -65.4765625 24.32421875 C-62.36563654 13.01055212 -56.06355423 5.02409639 -46.125 -1.1875 C-42.86138477 -2.76651384 -39.57589255 -4.07892312 -36.125 -5.1875 C-35.53589844 -5.38085938 -34.94679688 -5.57421875 -34.33984375 -5.7734375 C-22.4202685 -8.00178843 -10.16325496 -6.65488676 0 0 Z M-39.125 17.8125 C-44.64189313 25.25879838 -45.9694483 31.57048248 -45.125 40.8125 C-43.17918971 47.28443424 -39.10395682 51.77809046 -33.5625 55.5625 C-26.65254117 59.10606863 -17.4798025 59.14361223 -10.16015625 56.90625 C-3.42276925 53.74525039 0.70609874 49.8927809 3.6875 43 C5.8575291 36.38956454 5.70277316 30.98741649 2.8125 24.625 C-0.33462406 18.90861365 -4.09988476 15.16414724 -10.0625 12.5 C-20.20456825 10.22320917 -30.92003775 10.40802187 -39.125 17.8125 Z " fill="#02D068" transform="translate(2697.125,698.1875)"/>
<path d="M0 0 C6.93 0 13.86 0 21 0 C21 38.94 21 77.88 21 118 C14.4 118 7.8 118 1 118 C0.505 114.04 0.505 114.04 0 110 C-0.53367187 110.39832031 -1.06734375 110.79664063 -1.6171875 111.20703125 C-12.15648209 118.70123553 -22.35617505 120.43758881 -35.14453125 118.53125 C-45.28306267 116.34476312 -54.65871151 111.38786571 -61 103 C-68.57311936 90.31983479 -71.06606531 77.92563051 -68.3125 63.1875 C-65.04793724 51.00286434 -57.81760939 42.26602059 -47 36 C-36.13446632 30.74447236 -23.87188677 30.19278876 -12.375 33.6875 C-7.35008051 35.43686309 -5.4658302 37.27847484 -1 41 C-0.67 27.47 -0.34 13.94 0 0 Z M-42.6875 57.8125 C-48.5544309 65.89935069 -49.09976068 73.07102856 -48 83 C-46.00303569 89.59680946 -42.76366126 94.27057212 -37 98 C-30.37614387 101.51937064 -23.66302698 102.10825305 -16.38671875 100.37890625 C-9.9255217 98.17288298 -5.60040058 94.82064761 -2 89 C1.58563559 80.93231993 2.05290845 73.64512408 -0.6875 65.3125 C-3.64651886 57.83762657 -8.84831542 53.44932273 -16 50 C-26.29862791 47.50839647 -35.35900006 50.1431396 -42.6875 57.8125 Z " fill="#02D068" transform="translate(2236,660)"/>
<path d="M0 0 C6.93 0 13.86 0 21 0 C21.01458252 2.03260986 21.02916504 4.06521973 21.04418945 6.15942383 C21.09477042 12.91293626 21.16140521 19.66622378 21.23571491 26.41951466 C21.28023732 30.50971782 21.31953204 34.59982554 21.34643555 38.69018555 C21.37265117 42.64558859 21.41317874 46.60062063 21.46318626 50.55579185 C21.47973265 52.0566308 21.4913224 53.55753373 21.49761391 55.0584507 C21.54892719 66.18562774 21.77877158 77.39315563 29.20703125 86.34375 C34.58627531 91.31281206 41.81250221 93.09410799 49 93 C57.69715036 92.30323259 64.400272 89.98888779 70.3125 83.4375 C75.22308297 73.43446063 75.4650559 62.87698062 75.51171875 51.953125 C75.52860657 50.4456846 75.54676216 48.93825792 75.56611633 47.43084717 C75.61317806 43.50521133 75.64326847 39.57963115 75.66955566 35.65380859 C75.69958523 31.63107309 75.7460372 27.60852872 75.79101562 23.5859375 C75.87654871 15.72403756 75.94259117 7.86215565 76 0 C82.93 0 89.86 0 97 0 C97.06818529 8.88506786 97.12304977 17.76995767 97.15543652 26.65522957 C97.1709923 30.78246016 97.19204234 34.90950015 97.22631836 39.03662109 C97.25927664 43.03075874 97.27692852 47.02471482 97.28463173 51.01897812 C97.29011065 52.5313693 97.30080626 54.04375225 97.31719017 55.55606461 C97.49451359 72.62628609 95.27079436 88.18669073 83.08203125 101.03125 C72.76993982 110.78227079 59.44198193 112.61048557 45.76782227 112.47241211 C34.25609893 112.08893181 24.03362895 109.46177751 15 102 C14.37609375 101.49855469 13.7521875 100.99710938 13.109375 100.48046875 C5.53332702 93.71143457 1.39860526 83.93620289 0 74 C-0.26996323 68.30965946 -0.23346736 62.62893042 -0.1953125 56.93359375 C-0.1915763 55.28736036 -0.1887322 53.64112473 -0.18673706 51.99488831 C-0.17914833 47.68933838 -0.15954146 43.38392618 -0.1373291 39.07843018 C-0.11676739 34.67405052 -0.10771339 30.26964833 -0.09765625 25.86523438 C-0.07629046 17.24341974 -0.04114786 8.62174294 0 0 Z " fill="#02D068" transform="translate(940,667)"/>
<path d="M0 0 C6.6 0 13.2 0 20 0 C20 22.77 20 45.54 20 69 C26.10097782 63.69342875 26.10097782 63.69342875 32.04296875 58.23828125 C32.7184375 57.59963135 33.39390625 56.96098145 34.08984375 56.30297852 C35.12818359 55.31769165 35.12818359 55.31769165 36.1875 54.3125 C42.63614534 48.21633693 49.12381045 42.16635087 55.65625 36.16015625 C57.34975889 34.60261185 57.34975889 34.60261185 59 33 C60.85369611 32.91262355 62.71067541 32.89301847 64.56640625 32.90234375 C65.69111328 32.90556641 66.81582031 32.90878906 67.97460938 32.91210938 C69.15861328 32.92048828 70.34261719 32.92886719 71.5625 32.9375 C72.75037109 32.94201172 73.93824219 32.94652344 75.16210938 32.95117188 C78.10812226 32.96300325 81.05403681 32.97948713 84 33 C80.36181581 37.34791923 76.62230288 41.47197411 72.5625 45.4375 C68.78679407 49.15721298 65.20832323 52.97497129 61.76953125 57.0078125 C58.36077141 60.84548914 54.66540671 64.40939751 51 68 C52.29814634 70.7527505 53.73274267 73.13220513 55.58203125 75.546875 C56.09548096 76.21895996 56.60893066 76.89104492 57.13793945 77.58349609 C57.69054443 78.29844238 58.24314941 79.01338867 58.8125 79.75 C59.38637451 80.49717285 59.96024902 81.2443457 60.55151367 82.01416016 C64.55671347 87.20275163 68.65799149 92.30556877 72.8125 97.375 C87 114.69783568 87 114.69783568 87 118 C66.95718799 120.03829295 66.95718799 120.03829295 60.9609375 116.94970703 C57.61805285 114.15488589 55.39638991 110.61886174 53.18310547 106.90380859 C51.14441592 103.62322645 48.67232978 100.68906479 46.25 97.6875 C45.34106322 96.5232151 44.43346469 95.35788396 43.52734375 94.19140625 C40.49777385 90.3315352 37.30211361 86.62894397 34 83 C32.02058257 84.81222681 30.04145495 86.62476828 28.0625 88.4375 C27.49853516 88.95376953 26.93457031 89.47003906 26.35351562 90.00195312 C22.45239839 93.02720885 22.45239839 93.02720885 20.79467773 97.22485352 C20.75802002 98.18319092 20.7213623 99.14152832 20.68359375 100.12890625 C20.64169922 101.16337891 20.59980469 102.19785156 20.55664062 103.26367188 C20.51732422 104.35228516 20.47800781 105.44089844 20.4375 106.5625 C20.39431641 107.65498047 20.35113281 108.74746094 20.30664062 109.87304688 C20.20017932 112.58189564 20.09816484 115.29083992 20 118 C16.68751813 118.02888146 13.37506833 118.04675799 10.0625 118.0625 C9.11697266 118.07087891 8.17144531 118.07925781 7.19726562 118.08789062 C5.84858398 118.09272461 5.84858398 118.09272461 4.47265625 118.09765625 C3.64000244 118.10289307 2.80734863 118.10812988 1.94946289 118.11352539 C0 118 0 118 -1 117 C-1.09791695 115.49681296 -1.12631799 113.98903867 -1.12698364 112.48266602 C-1.13121338 111.01870895 -1.13121338 111.01870895 -1.13552856 109.525177 C-1.13350433 108.44565765 -1.1314801 107.36613831 -1.12939453 106.25390625 C-1.13114685 105.12395233 -1.13289917 103.99399841 -1.13470459 102.82980347 C-1.13912582 99.07402027 -1.13618416 95.31828372 -1.1328125 91.5625 C-1.13348546 88.96557608 -1.13445542 86.36865222 -1.13571167 83.77172852 C-1.13718901 78.32079411 -1.13512751 72.86987742 -1.13037109 67.41894531 C-1.1249285 61.10860771 -1.12669117 54.79830241 -1.1321975 48.48796558 C-1.13727431 42.428323 -1.13674709 36.36869628 -1.13381577 30.30905151 C-1.13314623 27.72533158 -1.13397585 25.14161083 -1.13629532 22.55789185 C-1.13882025 18.95393657 -1.1349835 15.3500443 -1.12939453 11.74609375 C-1.13141876 10.6665744 -1.13344299 9.58705505 -1.13552856 8.474823 C-1.13270874 7.49885162 -1.12988892 6.52288025 -1.12698364 5.51733398 C-1.12660662 4.66413071 -1.12622959 3.81092743 -1.12584114 2.93186951 C-1 1 -1 1 0 0 Z " fill="#02D068" transform="translate(1432,660)"/>
<path d="M0 0 C6.6 0 13.2 0 20 0 C20.495 20.295 20.495 20.295 21 41 C23.97 39.02 26.94 37.04 30 35 C39.97513845 30.90062804 51.67971899 30.19447544 62 33.625 C71.09854501 37.55360714 76.93021293 42.84945965 81 52 C83.29374748 59.17690439 83.2583257 65.97626484 83.1953125 73.46875 C83.1924826 74.74480103 83.18965271 76.02085205 83.18673706 77.33557129 C83.17747997 80.70247059 83.15955962 84.06909082 83.1373291 87.43591309 C83.11674672 90.88173024 83.10770904 94.32757639 83.09765625 97.7734375 C83.0756663 104.51571103 83.04117267 111.25781742 83 118 C76.4 118 69.8 118 63 118 C62.970271 115.79086914 62.970271 115.79086914 62.93994141 113.53710938 C62.86361908 108.05028777 62.77494298 102.56372216 62.68261719 97.07714844 C62.64443726 94.70675731 62.6095656 92.33631041 62.578125 89.96582031 C62.5322356 86.54992807 62.47428038 83.13441611 62.4140625 79.71875 C62.40251129 78.66635132 62.39096008 77.61395264 62.37905884 76.52966309 C62.23124624 69.08734016 61.97574758 60.97089709 57 55 C51.18237624 50.62961762 45.0713132 50.12509225 38 51 C35.11585152 51.75594543 32.73794946 52.75111077 30 54 C29.21625 54.309375 28.4325 54.61875 27.625 54.9375 C23.62239272 57.55458937 22.69802506 63.60592047 21.64208984 67.97851562 C19.96019572 77.05185307 20.41024813 86.55745667 20.3125 95.75 C20.27927392 97.91147837 20.2447795 100.07293764 20.20898438 102.234375 C20.12233769 107.48959734 20.06175786 112.74419285 20 118 C13.4 118 6.8 118 0 118 C0 79.06 0 40.12 0 0 Z " fill="#02CF68" transform="translate(2752,660)"/>
<path d="M0 0 C6.91553814 5.58457147 10.30603773 12.82081511 11.51245117 21.50244141 C12.12006147 27.28237346 12.09387432 33.03758999 12.06640625 38.84375 C12.0649913 39.98520981 12.06357635 41.12666962 12.06211853 42.30271912 C12.05655751 45.91928824 12.04401231 49.53579359 12.03125 53.15234375 C12.02622996 55.61653556 12.02166794 58.08072835 12.01757812 60.54492188 C12.00660086 66.5599201 11.98936334 72.57487114 11.96875 78.58984375 C5.36875 78.58984375 -1.23125 78.58984375 -8.03125 78.58984375 C-8.52625 75.12484375 -8.52625 75.12484375 -9.03125 71.58984375 C-9.6603125 71.99976563 -10.289375 72.4096875 -10.9375 72.83203125 C-21.83062577 79.68945078 -31.94291989 81.16826993 -44.78125 78.96484375 C-52.44269071 76.96498239 -58.5489695 71.97369779 -63.03125 65.58984375 C-66.74130441 58.35523766 -66.36222422 51.17177602 -64.03125 43.58984375 C-59.98690384 36.05899227 -53.91428286 32.34696362 -46.03125 29.58984375 C-41.52526226 28.67481436 -37.25714375 28.47320783 -32.6640625 28.4921875 C-31.64468094 28.49430992 -31.64468094 28.49430992 -30.60470581 28.49647522 C-28.45517388 28.50202857 -26.30574992 28.51457206 -24.15625 28.52734375 C-22.69010568 28.53236479 -21.22395971 28.53692664 -19.7578125 28.54101562 C-16.18225717 28.55198264 -12.60676414 28.56921456 -9.03125 28.58984375 C-9.3119304 27.15848705 -9.60303646 25.72917255 -9.8984375 24.30078125 C-10.13989502 23.10654541 -10.13989502 23.10654541 -10.38623047 21.88818359 C-11.58550558 17.6149149 -13.98641812 14.76852414 -17.8203125 12.55859375 C-27.09092682 8.56964416 -36.70166218 10.71642688 -46.03125 13.58984375 C-48.50928454 14.77369929 -50.70264386 16.12180944 -53.03125 17.58984375 C-54.02125 17.58984375 -55.01125 17.58984375 -56.03125 17.58984375 C-57.23130531 15.49199145 -58.41627983 13.38781885 -59.59375 11.27734375 C-60.10711914 10.38499023 -60.10711914 10.38499023 -60.63085938 9.47460938 C-61.50891262 7.88701816 -62.27711268 6.23990444 -63.03125 4.58984375 C-61.72661669 0.67594382 -60.41087904 0.41415991 -56.78125 -1.41015625 C-39.37377448 -9.62354259 -16.25616508 -11.70558366 0 0 Z M-43.03125 45.58984375 C-45.5023068 49.29642896 -45.81113732 52.29233964 -45.03125 56.58984375 C-42.61939649 60.53651313 -40.94574041 62.21727358 -36.65625 63.96484375 C-28.27562759 65.40977865 -21.30840783 64.37929451 -14.15625 59.71484375 C-11.12300528 56.68159903 -9.12418038 54.5677936 -8.9152832 50.12158203 C-8.93594849 48.77942627 -8.93594849 48.77942627 -8.95703125 47.41015625 C-8.96774658 46.50797363 -8.97846191 45.60579102 -8.98950195 44.67626953 C-9.01016724 43.64348877 -9.01016724 43.64348877 -9.03125 42.58984375 C-13.38528865 42.50228703 -17.73909877 42.44926406 -22.09375 42.40234375 C-23.32287109 42.37720703 -24.55199219 42.35207031 -25.81835938 42.32617188 C-34.85393272 42.22814314 -34.85393272 42.22814314 -43.03125 45.58984375 Z " fill="#02D068" transform="translate(2020.03125,699.41015625)"/>
<path d="M0 0 C10.89798017 7.98783813 16.28599523 17.0687341 18.625 30.1875 C20.1280895 42.94307601 17.26670467 53.60305894 10.25 64.375 C3.01768687 72.89879762 -7.5238221 79.05317806 -18.75 80.375 C-34.0655424 81.17570133 -46.06070263 79.31889777 -58 69.1875 C-67.54357983 60.1083644 -71.71786277 49.42571158 -72.125 36.3125 C-71.78861455 25.10940193 -67.86833163 14.32052384 -60.38671875 5.84765625 C-44.00337748 -8.89344079 -18.8875731 -11.46280299 0 0 Z M-42.75 16.375 C-48.80654997 22.57239997 -50.89127762 28.34054004 -51.1875 36.8125 C-50.99720876 44.27710622 -49.18189694 49.49512205 -44.375 55.1875 C-37.74613061 60.71155783 -32.99900593 62.78266063 -24.47265625 62.64453125 C-17.82351745 61.98629513 -12.45784628 59.57101063 -7.8125 54.75 C-2.6556564 48.20664657 -0.97053378 40.55939534 -1.75 32.375 C-3.45156611 25.16183931 -6.12007678 18.95436335 -12.375 14.625 C-22.26109165 8.96795867 -33.7988178 8.880987 -42.75 16.375 Z " fill="#02D068" transform="translate(1294.75,698.625)"/>
<path d="M0 0 C7.44476441 5.91672207 10.01726489 13.59556436 12.125 22.6875 C12.60177314 27.28276648 12.59640365 31.80991168 12.515625 36.42578125 C12.50996521 37.67256149 12.50430542 38.91934174 12.49847412 40.2039032 C12.47631142 44.13634739 12.42615166 48.06783715 12.375 52 C12.35261789 54.68682575 12.33638721 57.37367694 12.3203125 60.06054688 C12.2765124 66.60322518 12.20762484 73.1452015 12.125 79.6875 C5.525 79.6875 -1.075 79.6875 -7.875 79.6875 C-7.93558594 76.47128906 -7.99617188 73.25507812 -8.05859375 69.94140625 C-8.12051845 66.80377161 -8.18384987 63.66616828 -8.24731445 60.52856445 C-8.29045054 58.35899682 -8.33213926 56.18939988 -8.37231445 54.01977539 C-8.43053735 50.8893961 -8.49407803 47.75916143 -8.55859375 44.62890625 C-8.57530624 43.66916397 -8.59201874 42.70942169 -8.60923767 41.72059631 C-8.76490614 29.74323232 -8.76490614 29.74323232 -12.875 18.6875 C-12.875 18.0275 -12.875 17.3675 -12.875 16.6875 C-13.596875 16.39875 -14.31875 16.11 -15.0625 15.8125 C-17.875 14.6875 -17.875 14.6875 -20.0625 13.5625 C-26.42579138 11.58280935 -33.02312852 12.08667112 -39.125 14.70703125 C-43.6441289 17.23895392 -46.59348014 21.12446028 -48.875 25.6875 C-49.69387303 29.07667105 -50.01736479 32.27252492 -50.08032227 35.75317383 C-50.10026749 36.73381302 -50.12021271 37.71445221 -50.14076233 38.72480774 C-50.16583107 40.29382088 -50.16583107 40.29382088 -50.19140625 41.89453125 C-50.21218735 42.97506271 -50.23296844 44.05559418 -50.25437927 45.16886902 C-50.31964036 48.61251611 -50.37865075 52.05623795 -50.4375 55.5 C-50.48070751 57.83789828 -50.52432251 60.17578907 -50.56835938 62.51367188 C-50.67529772 68.23820278 -50.77710727 73.96280765 -50.875 79.6875 C-54.18748187 79.71638146 -57.49993167 79.73425799 -60.8125 79.75 C-61.75802734 79.75837891 -62.70355469 79.76675781 -63.67773438 79.77539062 C-65.02641602 79.78022461 -65.02641602 79.78022461 -66.40234375 79.78515625 C-67.23499756 79.79039307 -68.06765137 79.79562988 -68.92553711 79.80102539 C-70.875 79.6875 -70.875 79.6875 -71.875 78.6875 C-71.97009559 76.07061559 -72.00056 73.480211 -71.98852539 70.86303711 C-71.98867142 70.04359116 -71.98881744 69.2241452 -71.9889679 68.37986755 C-71.98826852 65.65816647 -71.98047501 62.93653295 -71.97265625 60.21484375 C-71.97079216 58.33297259 -71.96936821 56.45110094 -71.96836853 54.56922913 C-71.96454267 49.60601471 -71.95471181 44.64282936 -71.94366455 39.67962646 C-71.9334519 34.61910394 -71.92887122 29.55857673 -71.92382812 24.49804688 C-71.91308959 14.56118306 -71.89549225 4.62434849 -71.875 -5.3125 C-65.275 -5.3125 -58.675 -5.3125 -51.875 -5.3125 C-51.545 -2.6725 -51.215 -0.0325 -50.875 2.6875 C-50.34132813 2.28917969 -49.80765625 1.89085937 -49.2578125 1.48046875 C-34.59364649 -8.94681885 -15.32496426 -9.88918634 0 0 Z " fill="#02D068" transform="translate(1138.875,698.3125)"/>
<path d="M0 0 C7.32617646 4.5768738 10.98777118 11.90958739 13.34823608 19.96327209 C14.53434424 25.47500183 14.35267186 30.98764186 14.28125 36.6015625 C14.27700516 37.87478363 14.27276031 39.14800476 14.26838684 40.45980835 C14.2545304 43.81039095 14.22767866 47.16033521 14.1942749 50.51074219 C14.16333528 53.94330391 14.149831 57.37593215 14.13476562 60.80859375 C14.101832 67.51842492 14.05011965 74.22787549 13.98828125 80.9375 C7.38828125 80.9375 0.78828125 80.9375 -6.01171875 80.9375 C-6.04144775 78.8349585 -6.04144775 78.8349585 -6.07177734 76.68994141 C-6.14827398 71.45279007 -6.2369213 66.21590072 -6.32910156 60.97900391 C-6.36721019 58.71929118 -6.4020935 56.45952154 -6.43359375 54.19970703 C-6.47963998 50.93761958 -6.53756689 47.67591796 -6.59765625 44.4140625 C-6.60920746 43.41573395 -6.62075867 42.4174054 -6.63265991 41.38882446 C-6.7886721 33.84923693 -7.06360211 24.58695961 -11.01171875 17.9375 C-13.32575745 16.66162505 -13.32575745 16.66162505 -16.01171875 15.9375 C-16.73359375 15.56625 -17.45546875 15.195 -18.19921875 14.8125 C-24.55936889 12.83378662 -31.16546827 13.3307004 -37.26171875 15.9609375 C-42.24757709 18.74322452 -44.8631492 22.78093307 -47.01171875 27.9375 C-47.81125541 31.29895524 -48.15331743 34.4611998 -48.21704102 37.91137695 C-48.23698624 38.87199539 -48.25693146 39.83261383 -48.27748108 40.82234192 C-48.30254982 42.35854439 -48.30254982 42.35854439 -48.328125 43.92578125 C-48.3489061 44.98411667 -48.36968719 46.04245209 -48.39109802 47.13285828 C-48.45634978 50.50517441 -48.51536512 53.87756674 -48.57421875 57.25 C-48.61742715 59.53972134 -48.66104218 61.82943505 -48.70507812 64.11914062 C-48.81200621 69.72518282 -48.91334219 75.33130148 -49.01171875 80.9375 C-55.61171875 80.9375 -62.21171875 80.9375 -69.01171875 80.9375 C-69.01171875 52.8875 -69.01171875 24.8375 -69.01171875 -4.0625 C-62.74171875 -4.0625 -56.47171875 -4.0625 -50.01171875 -4.0625 C-49.68171875 -1.0925 -49.35171875 1.8775 -49.01171875 4.9375 C-48.26921875 4.07125 -48.26921875 4.07125 -47.51171875 3.1875 C-34.6424654 -8.39482802 -14.4894451 -7.6526778 0 0 Z " fill="#02CF68" transform="translate(2459.01171875,697.0625)"/>
<path d="M0 0 C7.32617646 4.5768738 10.98777118 11.90958739 13.34823608 19.96327209 C14.53434424 25.47500183 14.35267186 30.98764186 14.28125 36.6015625 C14.27700516 37.87478363 14.27276031 39.14800476 14.26838684 40.45980835 C14.2545304 43.81039095 14.22767866 47.16033521 14.1942749 50.51074219 C14.16333528 53.94330391 14.149831 57.37593215 14.13476562 60.80859375 C14.101832 67.51842492 14.05011965 74.22787549 13.98828125 80.9375 C7.38828125 80.9375 0.78828125 80.9375 -6.01171875 80.9375 C-6.04144775 78.8349585 -6.04144775 78.8349585 -6.07177734 76.68994141 C-6.14827398 71.45279007 -6.2369213 66.21590072 -6.32910156 60.97900391 C-6.36721019 58.71929118 -6.4020935 56.45952154 -6.43359375 54.19970703 C-6.47963998 50.93761958 -6.53756689 47.67591796 -6.59765625 44.4140625 C-6.60920746 43.41573395 -6.62075867 42.4174054 -6.63265991 41.38882446 C-6.7886721 33.84923693 -7.06360211 24.58695961 -11.01171875 17.9375 C-13.32575745 16.66162505 -13.32575745 16.66162505 -16.01171875 15.9375 C-16.73359375 15.56625 -17.45546875 15.195 -18.19921875 14.8125 C-24.55936889 12.83378662 -31.16546827 13.3307004 -37.26171875 15.9609375 C-42.24757709 18.74322452 -44.8631492 22.78093307 -47.01171875 27.9375 C-47.81125541 31.29895524 -48.15331743 34.4611998 -48.21704102 37.91137695 C-48.23698624 38.87199539 -48.25693146 39.83261383 -48.27748108 40.82234192 C-48.30254982 42.35854439 -48.30254982 42.35854439 -48.328125 43.92578125 C-48.3489061 44.98411667 -48.36968719 46.04245209 -48.39109802 47.13285828 C-48.45634978 50.50517441 -48.51536512 53.87756674 -48.57421875 57.25 C-48.61742715 59.53972134 -48.66104218 61.82943505 -48.70507812 64.11914062 C-48.81200621 69.72518282 -48.91334219 75.33130148 -49.01171875 80.9375 C-55.61171875 80.9375 -62.21171875 80.9375 -69.01171875 80.9375 C-69.01171875 52.8875 -69.01171875 24.8375 -69.01171875 -4.0625 C-62.74171875 -4.0625 -56.47171875 -4.0625 -50.01171875 -4.0625 C-49.68171875 -1.0925 -49.35171875 1.8775 -49.01171875 4.9375 C-48.26921875 4.07125 -48.26921875 4.07125 -47.51171875 3.1875 C-34.6424654 -8.39482802 -14.4894451 -7.6526778 0 0 Z " fill="#02CF68" transform="translate(1655.01171875,697.0625)"/>
<path d="M0 0 C7.00745731 5.51186091 10.3553817 13.29882366 12.1875 21.8125 C12.56997291 26.37355499 12.53866537 30.90217554 12.48046875 35.4765625 C12.47622391 36.74978363 12.47197906 38.02300476 12.46760559 39.33480835 C12.45374915 42.68539095 12.42689741 46.03533521 12.39349365 49.38574219 C12.36255403 52.81830391 12.34904975 56.25093215 12.33398438 59.68359375 C12.30105075 66.39342492 12.2493384 73.10287549 12.1875 79.8125 C5.5875 79.8125 -1.0125 79.8125 -7.8125 79.8125 C-7.842229 77.7099585 -7.842229 77.7099585 -7.87255859 75.56494141 C-7.94905523 70.32779007 -8.03770255 65.09090072 -8.12988281 59.85400391 C-8.16799144 57.59429118 -8.20287475 55.33452154 -8.234375 53.07470703 C-8.28042123 49.81261958 -8.33834814 46.55091796 -8.3984375 43.2890625 C-8.40998871 42.29073395 -8.42153992 41.2924054 -8.43344116 40.26382446 C-8.58945335 32.72423693 -8.86438336 23.46195961 -12.8125 16.8125 C-15.1265387 15.53662505 -15.1265387 15.53662505 -17.8125 14.8125 C-18.534375 14.44125 -19.25625 14.07 -20 13.6875 C-26.36015014 11.70878662 -32.96624952 12.2057004 -39.0625 14.8359375 C-44.04835834 17.61822452 -46.66393045 21.65593307 -48.8125 26.8125 C-49.61203666 30.17395524 -49.95409868 33.3361998 -50.01782227 36.78637695 C-50.03776749 37.74699539 -50.05771271 38.70761383 -50.07826233 39.69734192 C-50.10333107 41.23354439 -50.10333107 41.23354439 -50.12890625 42.80078125 C-50.14968735 43.85911667 -50.17046844 44.91745209 -50.19187927 46.00785828 C-50.25713103 49.38017441 -50.31614637 52.75256674 -50.375 56.125 C-50.4182084 58.41472134 -50.46182343 60.70443505 -50.50585938 62.99414062 C-50.61278746 68.60018282 -50.71412344 74.20630148 -50.8125 79.8125 C-57.4125 79.8125 -64.0125 79.8125 -70.8125 79.8125 C-70.8125 51.7625 -70.8125 23.7125 -70.8125 -5.1875 C-64.5425 -5.1875 -58.2725 -5.1875 -51.8125 -5.1875 C-51.4825 -2.2175 -51.1525 0.7525 -50.8125 3.8125 C-49.905 2.905 -48.9975 1.9975 -48.0625 1.0625 C-34.83816105 -10.05437457 -14.02305422 -8.76060654 0 0 Z " fill="#02CF68" transform="translate(2131.8125,698.1875)"/>
<path d="M0 0 C1.23230347 0.00628418 1.23230347 0.00628418 2.48950195 0.01269531 C12.97013764 0.20430861 22.65186575 1.99933214 31.8125 7.3125 C30.16683477 12.99752535 27.52217216 18.07931636 24.8125 23.3125 C24.255625 23.11914062 23.69875 22.92578125 23.125 22.7265625 C20.69500533 21.89740891 18.25550424 21.10243039 15.8125 20.3125 C14.61625 19.920625 13.42 19.52875 12.1875 19.125 C3.6839366 17.10604531 -6.55448444 16.69718826 -14.1875 21.3125 C-14.8475 21.9725 -15.5075 22.6325 -16.1875 23.3125 C-15.86423447 26.90929066 -15.86423447 26.90929066 -15.1875 30.3125 C-7.70554775 33.41652336 -0.15768538 34.82207066 7.79296875 36.2421875 C17.15654548 38.05065467 25.74157669 40.79540886 31.6953125 48.6328125 C35.06715791 53.70237028 35.43150601 58.35456711 34.8125 64.3125 C33.1655692 72.2383545 29.72670894 76.47940662 23 80.9375 C8.95781486 89.33113698 -7.74792195 88.89887843 -23.21411133 85.09594727 C-28.91883654 83.56280654 -34.11103379 81.35588515 -39.1875 78.3125 C-38.58915275 74.16951333 -37.18085715 71.13055623 -35.125 67.5 C-34.57714844 66.52417969 -34.02929688 65.54835938 -33.46484375 64.54296875 C-32.83255859 63.43888672 -32.83255859 63.43888672 -32.1875 62.3125 C-30.21875 62.96875 -30.21875 62.96875 -28.25 63.625 C-27.42886719 63.89699219 -26.60773437 64.16898438 -25.76171875 64.44921875 C-24.11420993 65.00172171 -22.47049968 65.56576877 -20.83203125 66.14453125 C-11.64591976 69.35413647 -1.06441971 71.27805303 8.375 68 C11.99790586 66.57872622 11.99790586 66.57872622 13.8125 63.3125 C13.49519476 59.67310068 13.49519476 59.67310068 12.8125 56.3125 C11.72533691 56.11672363 11.72533691 56.11672363 10.61621094 55.91699219 C7.26326433 55.30785044 3.91294549 54.68524585 0.5625 54.0625 C-0.57703125 53.85753906 -1.7165625 53.65257812 -2.890625 53.44140625 C-27.66361723 48.79647021 -27.66361723 48.79647021 -35.125 38.6875 C-38.12932339 31.97195359 -38.16947385 24.4651529 -36 17.5 C-31.35832508 9.33705444 -25.3058764 4.41865441 -16.14526367 1.70825195 C-10.74057033 0.38752304 -5.55181153 -0.03920689 0 0 Z " fill="#02D068" transform="translate(2532.1875,691.6875)"/>
<path d="M0 0 C-2.64 5.28 -5.28 10.56 -8 16 C-10.70182292 14.99088542 -13.40364583 13.98177083 -16.10546875 12.97265625 C-21.38213458 11.19952563 -26.32980416 10.79145941 -31.875 10.75 C-32.55691406 10.729375 -33.23882813 10.70875 -33.94140625 10.6875 C-39.00962075 10.64888503 -42.47388502 11.70800315 -47 14 C-48.3741663 15.16593462 -48.3741663 15.16593462 -48.375 18.375 C-48.25125 19.57125 -48.1275 20.7675 -48 22 C-44.54173552 24.63679414 -41.25394662 25.5831109 -37.02734375 26.39453125 C-35.30547852 26.74547852 -35.30547852 26.74547852 -33.54882812 27.10351562 C-31.16981242 27.57056955 -28.78961673 28.03165868 -26.40820312 28.48632812 C-16.65510121 30.49128334 -6.82359056 33.3369805 0 41 C3.33102052 47.31196564 3.13447458 55.68627928 1.34765625 62.48046875 C-2.10148018 70.13370279 -7.97296458 73.78705877 -15.5625 76.8125 C-32.79573844 83.20514187 -51.20857655 80.3491574 -67.671875 73.0859375 C-69.12326997 72.40894455 -70.56755683 71.71622159 -72 71 C-70.35433477 65.31497465 -67.70967216 60.23318364 -65 55 C-61.5331925 55.59413485 -58.58533693 56.51485905 -55.375 57.9375 C-44.46108652 62.39050624 -32.93847307 63.7571488 -21.71484375 59.8515625 C-19.80892058 59.1196641 -19.80892058 59.1196641 -19 57 C-18.960008 55.00039988 -18.95653201 52.99952758 -19 51 C-23.13087705 48.7606625 -26.82193443 47.42314766 -31.4296875 46.53515625 C-33.24146484 46.17067383 -33.24146484 46.17067383 -35.08984375 45.79882812 C-37.60502249 45.30954929 -40.12064667 44.82255456 -42.63671875 44.33789062 C-52.30026978 42.38768517 -60.15685503 40.24610869 -66.58203125 32.3359375 C-69.96617775 26.76095236 -70.53835508 20.52725155 -69.375 14.1875 C-67.37622684 7.122654 -63.01144868 2.04945784 -57 -2 C-39.36459204 -10.8037298 -17.23709619 -8.61854809 0 0 Z " fill="#02D068" transform="translate(2998,699)"/>
<path d="M0 0 C3.54476837 2.80142101 6.41764892 5.93854392 8.49609375 9.97265625 C8.49609375 10.96265625 8.49609375 11.95265625 8.49609375 12.97265625 C6.23204833 14.33945778 3.96108354 15.6911007 1.68359375 17.03515625 C1.04099609 17.42509766 0.39839844 17.81503906 -0.26367188 18.21679688 C-1.96679775 19.21396384 -3.73336483 20.10078312 -5.50390625 20.97265625 C-8.50390625 19.97265625 -8.50390625 19.97265625 -10.19140625 17.66015625 C-14.09630274 13.1220333 -17.83193677 11.31619518 -23.78515625 10.55078125 C-31.71365237 10.24053575 -38.06702418 11.12361985 -44.50390625 15.97265625 C-49.9109536 21.35413836 -51.55231569 27.79464367 -51.87890625 35.28515625 C-51.71140574 42.06892677 -50.18718197 47.88974372 -45.66796875 53.08203125 C-39.19193475 59.08662983 -33.35000322 60.50760072 -24.61328125 60.35546875 C-18.21882983 59.56821217 -13.24171402 56.83459314 -8.87890625 52.16015625 C-8.42515625 51.43828125 -7.97140625 50.71640625 -7.50390625 49.97265625 C-3.15526973 50.5371045 -0.3256297 52.12693589 3.30859375 54.53515625 C4.28441406 55.17582031 5.26023437 55.81648437 6.265625 56.4765625 C7.00167969 56.97027344 7.73773437 57.46398437 8.49609375 57.97265625 C7.40827467 64.01609556 2.94877559 68.08239973 -1.76953125 71.71875 C-12.87024486 78.89840509 -26.00895798 80.8889685 -38.9296875 78.28125 C-51.5129491 74.74729051 -60.96624016 68.68074186 -68.0390625 57.55859375 C-74.34510759 45.97606196 -74.66282737 33.78645516 -71.5390625 21.21875 C-68.03633511 10.23472563 -60.64986888 1.8878685 -50.50390625 -3.40234375 C-34.06007659 -11.40083698 -15.08211609 -10.07613713 0 0 Z " fill="#02D068" transform="translate(1402.50390625,700.02734375)"/>
<path d="M0 0 C6.93 0 13.86 0 21 0 C21 30.69 21 61.38 21 93 C40.14 93 59.28 93 79 93 C79 98.61 79 104.22 79 110 C77.30397146 111.69602854 75.19190949 111.1196808 72.92975521 111.12442875 C71.83905397 111.11903159 71.83905397 111.11903159 70.72631836 111.11352539 C69.56641183 111.11370619 69.56641183 111.11370619 68.38307285 111.11389065 C65.86863435 111.11314154 63.35426907 111.1055134 60.83984375 111.09765625 C59.29203324 111.09618683 57.74422224 111.09516612 56.19641113 111.09460449 C50.4434332 111.08935167 44.69046589 111.07539059 38.9375 111.0625 C26.088125 111.041875 13.23875 111.02125 0 111 C0 74.37 0 37.74 0 0 Z " fill="#02CF68" transform="translate(1863,667)"/>
<path d="M0 0 C6.6 0 13.2 0 20 0 C20 6.6 20 13.2 20 20 C27.59 20 35.18 20 43 20 C43 25.28 43 30.56 43 36 C35.41 36 27.82 36 20 36 C20.09711106 41.72955228 20.19995189 47.45841091 20.31738281 53.1875 C20.35558233 55.13502798 20.39045075 57.08262435 20.421875 59.03027344 C20.46772196 61.83553446 20.52568366 64.64032839 20.5859375 67.4453125 C20.60326431 68.74409836 20.60326431 68.74409836 20.62094116 70.06912231 C20.75042009 75.41516473 21.0381888 80.38050424 24.36328125 84.8203125 C27.53717435 87.10793951 31.18547942 87.12878606 35 87 C37.87213979 86.25589778 40.28190712 85.23549677 43 84 C43.84212256 85.91282125 44.67338864 87.83042473 45.5 89.75 C45.9640625 90.81734375 46.428125 91.8846875 46.90625 92.984375 C48 96 48 96 48 100 C38.35185931 105.26484834 28.44261474 106.73482822 17.6875 103.75 C8.99257336 100.74180263 5.00770567 96.14595549 1 88 C0.07434755 84.98667357 -0.12180259 82.28498589 -0.11352539 79.13964844 C-0.11344986 78.17895447 -0.11337433 77.2182605 -0.11329651 76.22845459 C-0.10813522 75.19915833 -0.10297394 74.16986206 -0.09765625 73.109375 C-0.0962413 72.04962463 -0.09482635 70.98987427 -0.09336853 69.89801025 C-0.08777382 66.51531138 -0.07522225 63.13267885 -0.0625 59.75 C-0.05748432 57.45573012 -0.05292153 55.16145921 -0.04882812 52.8671875 C-0.03780611 47.24476613 -0.02054507 41.62239431 0 36 C-4.62 36 -9.24 36 -14 36 C-14 30.72 -14 25.44 -14 20 C-9.38 20 -4.76 20 0 20 C0 13.4 0 6.8 0 0 Z " fill="#02D068" transform="translate(2867,674)"/>
<path d="M0 0 C6.6 0 13.2 0 20 0 C20 38.94 20 77.88 20 118 C13.4 118 6.8 118 0 118 C0 79.06 0 40.12 0 0 Z " fill="#02CF68" transform="translate(1180,660)"/>
<path d="M0 0 C6.93 0 13.86 0 21 0 C21 36.63 21 73.26 21 111 C14.07 111 7.14 111 0 111 C0 74.37 0 37.74 0 0 Z " fill="#02CF68" transform="translate(2337,667)"/>
<path d="M0 0 C6.93 0 13.86 0 21 0 C21 28.05 21 56.1 21 85 C14.4 85 7.8 85 1 85 C-0.76582363 83.23417637 -0.11985561 80.89628001 -0.12442017 78.54483032 C-0.12082489 77.76296356 -0.11722961 76.9810968 -0.11352539 76.17553711 C-0.11367142 75.35609116 -0.11381744 74.5366452 -0.1139679 73.69236755 C-0.11326852 70.97066647 -0.10547501 68.24903295 -0.09765625 65.52734375 C-0.09579216 63.64547259 -0.09436821 61.76360094 -0.09336853 59.88172913 C-0.08954267 54.91851471 -0.07971181 49.95532936 -0.06866455 44.99212646 C-0.0584519 39.93160394 -0.05387122 34.87107673 -0.04882812 29.81054688 C-0.03808959 19.87368306 -0.02049225 9.93684849 0 0 Z " fill="#02D068" transform="translate(1535,693)"/>
<path d="M0 0 C6.6 0 13.2 0 20 0 C20 28.05 20 56.1 20 85 C13.4 85 6.8 85 0 85 C0 56.95 0 28.9 0 0 Z " fill="#02CF68" transform="translate(2588,693)"/>
<path d="M0 0 C2.95365832 1.83484835 5.41785273 3.83570547 7 7 C7.42380724 13.46306042 6.7990502 16.73444143 2.5 21.75 C-0.93176867 24.60980722 -4.75816185 24.28758225 -9 24 C-12.59470303 22.54829301 -15.5695997 21.06997933 -18 18 C-19.63333319 13.10000043 -19.69486987 9.44532932 -17.4375 4.75 C-12.64063623 -0.66184631 -6.79067497 -2.29563304 0 0 Z " fill="#02D068" transform="translate(2604,656)"/>
<path d="M0 0 C2.55713222 2.63234199 4.04218126 4.64431076 4.2421875 8.37109375 C3.69953946 13.42122146 2.97089554 16.56136992 -0.875 20.1875 C-3.92050081 22.47162561 -7.08375587 22.60594026 -10.84765625 22.5078125 C-15.0292105 21.84714304 -17.70897814 19.23691967 -20.75 16.5 C-22.56634797 12.76639583 -22.62030408 9.24448544 -21.875 5.1875 C-20.09825197 1.59603925 -17.63486837 -0.42412283 -14.0625 -2.25 C-8.72035694 -3.19273113 -4.63823037 -2.92410176 0 0 Z " fill="#02D068" transform="translate(1554.875,657.8125)"/>
</svg>
